<mxfile host="app.diagrams.net" modified="2022-10-13T16:43:46.275Z" agent="5.0 (Windows NT 10.0; Win64; x64) AppleWebKit/537.36 (KHTML, like Gecko) Chrome/106.0.0.0 Safari/537.36" etag="d0le9zC3vhbJll2gLQ2G" version="20.4.0" type="github">
  <diagram id="3Fv5NhjtqIWBbp0A9UoZ" name="PÃ¡gina-1">
    <mxGraphModel dx="2132" dy="1514" grid="1" gridSize="10" guides="1" tooltips="1" connect="1" arrows="1" fold="1" page="1" pageScale="1" pageWidth="827" pageHeight="1169" math="0" shadow="0">
      <root>
        <mxCell id="0" />
        <mxCell id="1" parent="0" />
        <mxCell id="Gr2G1NVsENSNUCY83yur-3" value="GDrive" style="ellipse;shape=cloud;whiteSpace=wrap;html=1;rounded=1;fontSize=24;horizontal=1;verticalAlign=top;fontStyle=1" vertex="1" parent="1">
          <mxGeometry x="30" y="70" width="1180" height="770" as="geometry" />
        </mxCell>
        <mxCell id="Gr2G1NVsENSNUCY83yur-1" value="museu/" style="whiteSpace=wrap;html=1;rounded=1;verticalAlign=top;fontSize=18;fontStyle=3" vertex="1" parent="1">
          <mxGeometry x="413" y="260" width="427" height="380" as="geometry" />
        </mxCell>
        <mxCell id="Gr2G1NVsENSNUCY83yur-2" value="input.mp4" style="rounded=1;whiteSpace=wrap;html=1;fontSize=18;fillColor=#dae8fc;strokeColor=#6c8ebf;" vertex="1" parent="1">
          <mxGeometry x="560" y="310" width="120" height="60" as="geometry" />
        </mxCell>
        <mxCell id="Gr2G1NVsENSNUCY83yur-4" value="temp/" style="whiteSpace=wrap;html=1;rounded=1;verticalAlign=top;fontSize=18;fontStyle=3" vertex="1" parent="1">
          <mxGeometry x="431.5" y="385" width="398.5" height="140" as="geometry" />
        </mxCell>
        <mxCell id="Gr2G1NVsENSNUCY83yur-5" value="frames_input" style="whiteSpace=wrap;html=1;rounded=1;verticalAlign=top;fontSize=14;fontStyle=3" vertex="1" parent="1">
          <mxGeometry x="450" y="430" width="100" height="80" as="geometry" />
        </mxCell>
        <mxCell id="Gr2G1NVsENSNUCY83yur-6" value="frames_upscaled" style="whiteSpace=wrap;html=1;rounded=1;verticalAlign=top;fontSize=14;fontStyle=3" vertex="1" parent="1">
          <mxGeometry x="560" y="430" width="120" height="80" as="geometry" />
        </mxCell>
        <mxCell id="Gr2G1NVsENSNUCY83yur-7" value="frames_colorized" style="whiteSpace=wrap;html=1;rounded=1;verticalAlign=top;fontSize=14;fontStyle=3" vertex="1" parent="1">
          <mxGeometry x="690" y="430" width="120" height="80" as="geometry" />
        </mxCell>
        <mxCell id="Gr2G1NVsENSNUCY83yur-8" value="output.mp4" style="rounded=1;whiteSpace=wrap;html=1;fontSize=18;fillColor=#6a00ff;strokeColor=#3700CC;fontColor=#ffffff;" vertex="1" parent="1">
          <mxGeometry x="560" y="550" width="120" height="60" as="geometry" />
        </mxCell>
        <mxCell id="Gr2G1NVsENSNUCY83yur-9" value="Oracle" style="ellipse;shape=cloud;whiteSpace=wrap;html=1;rounded=1;fontSize=24;horizontal=1;verticalAlign=top;fontStyle=1" vertex="1" parent="1">
          <mxGeometry x="1241" y="65" width="1180" height="770" as="geometry" />
        </mxCell>
      </root>
    </mxGraphModel>
  </diagram>
</mxfile>
